<?xml version="1.0" encoding="utf-8"?>
<!-- Generator: Adobe Illustrator 23.0.1, SVG Export Plug-In . SVG Version: 6.00 Build 0)  -->
<svg version="1.1" id="Layer_1" xmlns="http://www.w3.org/2000/svg" xmlns:xlink="http://www.w3.org/1999/xlink" x="0px" y="0px"
	 viewBox="0 0 40 40" style="enable-background:new 0 0 40 40;" xml:space="preserve">
<g>
	<path d="M40,18.22h-1.69v-3.42h-1.69v-1.71h-1.69V9.94h-1.69V8.23h-1.61V6.52H16.76V4.81h-5.08V3.1h-1.53V1.55H8.37V0H1.69v1.61H0
		v6.73h1.65v3.21h1.69v1.82h1.59v4.84H3.34v10.15h1.69v1.52v0.42v3.01h1.59v1.71h1.76v1.71h1.77v1.55h3.28V40h19.87v-1.71h1.61
		v-1.71h1.69v-1.71h1.69v-1.55H40V18.22z M6.72,28.36L6.72,28.36l0-8.36h1.59v-6.64H6.73V8.34H5.03V6.52H3.38V3.1h4.99v1.88H9.9
		v1.55h1.78v1.71h3.34v1.71h14.83v1.71h1.69v1.71h1.69v3.14h1.69v1.71h1.69v11.67h-1.69v3.26h-1.7v1.71h-1.69v1.71H16.76v-1.71
		h-3.55v-1.55h-3.2V31.6H8.42v-1.71H6.72C6.72,29.89,6.72,28.36,6.72,28.36z"/>
	<polygon points="11.79,24.84 13.3,24.84 13.3,20.05 14.81,20.05 14.81,21.64 16.59,21.64 16.59,23.29 18.36,23.29 18.36,19.92 
		16.59,19.92 16.59,16.87 15.03,16.87 15.03,16.69 14.81,16.69 14.81,14.79 13.3,14.79 13.3,16.69 10,16.69 10,18.22 11.79,18.22 	
		"/>
	<rect x="31.54" y="23.29" width="1.64" height="1.66"/>
	<polygon points="24.92,18.3 26.55,18.3 26.55,19.92 24.92,19.92 24.92,23.3 26.55,23.3 26.55,21.61 29.85,21.61 29.85,23.3 
		31.49,23.3 31.49,19.92 29.85,19.92 29.85,18.3 31.55,18.3 31.55,16.64 31.49,16.64 31.49,14.95 29.85,14.95 29.85,16.64 
		24.96,16.64 24.96,15.03 23.32,15.03 23.32,16.69 24.92,16.69 	"/>
</g>
</svg>
