<?xml version="1.0" encoding="utf-8"?>
<!-- Generator: Adobe Illustrator 23.0.1, SVG Export Plug-In . SVG Version: 6.00 Build 0)  -->
<svg version="1.1" id="Layer_1" xmlns="http://www.w3.org/2000/svg" xmlns:xlink="http://www.w3.org/1999/xlink" x="0px" y="0px"
	 viewBox="0 0 319.3 200" style="enable-background:new 0 0 319.3 200;" xml:space="preserve">
<g>
	<rect x="199.6" y="40.1" width="39.9" height="79.9"/>
	<polygon points="119.7,80.1 79.7,80.1 79.7,120 119.7,120 119.7,160 159.6,160 159.6,120 159.6,80.1 	"/>
	<path d="M39.9,79.9c0-22,17.8-39.8,39.8-39.9V0C35.7,0.1,0,35.8,0,79.9c0,0.1,0,0.1,0,0.2h39.9C40,80,39.9,80,39.9,79.9z"/>
	<path d="M279.4,120.1c0,22-17.8,39.8-39.8,39.9V200c44-0.1,79.7-35.8,79.7-79.9c0-0.1,0-0.1,0-0.2h-39.9
		C279.4,120,279.4,120.1,279.4,120.1z"/>
</g>
</svg>
